<svg width="16" height="16" viewBox="0 0 16 16" fill="none" xmlns="http://www.w3.org/2000/svg">
<path d="M8 15.5C3.85775 15.5 0.5 12.1423 0.5 8C0.5 3.85775 3.85775 0.5 8 0.5C12.1423 0.5 15.5 3.85775 15.5 8C15.5 12.1423 12.1423 15.5 8 15.5ZM8 14C9.5913 14 11.1174 13.3679 12.2426 12.2426C13.3679 11.1174 14 9.5913 14 8C14 6.4087 13.3679 4.88258 12.2426 3.75736C11.1174 2.63214 9.5913 2 8 2C6.4087 2 4.88258 2.63214 3.75736 3.75736C2.63214 4.88258 2 6.4087 2 8C2 9.5913 2.63214 11.1174 3.75736 12.2426C4.88258 13.3679 6.4087 14 8 14ZM5 8.75H11C11 9.54565 10.6839 10.3087 10.1213 10.8713C9.55871 11.4339 8.79565 11.75 8 11.75C7.20435 11.75 6.44129 11.4339 5.87868 10.8713C5.31607 10.3087 5 9.54565 5 8.75ZM5 7.25C4.70163 7.25 4.41548 7.13147 4.2045 6.9205C3.99353 6.70952 3.875 6.42337 3.875 6.125C3.875 5.82663 3.99353 5.54048 4.2045 5.3295C4.41548 5.11853 4.70163 5 5 5C5.29837 5 5.58452 5.11853 5.7955 5.3295C6.00647 5.54048 6.125 5.82663 6.125 6.125C6.125 6.42337 6.00647 6.70952 5.7955 6.9205C5.58452 7.13147 5.29837 7.25 5 7.25ZM11 7.25C10.7016 7.25 10.4155 7.13147 10.2045 6.9205C9.99353 6.70952 9.875 6.42337 9.875 6.125C9.875 5.82663 9.99353 5.54048 10.2045 5.3295C10.4155 5.11853 10.7016 5 11 5C11.2984 5 11.5845 5.11853 11.7955 5.3295C12.0065 5.54048 12.125 5.82663 12.125 6.125C12.125 6.42337 12.0065 6.70952 11.7955 6.9205C11.5845 7.13147 11.2984 7.25 11 7.25Z" fill="#359D9E"/>
</svg>
