<svg id="svg2" xmlns="http://www.w3.org/2000/svg" xmlns:xlink="http://www.w3.org/1999/xlink" viewBox="0 0 99.62 92.15"><defs><style>.cls-1{fill:none;}.cls-2{clip-path:url(#clip-path);}.cls-3{fill:#3c1e1e;}</style><clipPath id="clip-path"><rect class="cls-1" x="-362.26" y="-361.18" width="841.89" height="595.28"/></clipPath></defs><g id="g686"><g class="cls-2"><g id="g688"><g id="g694"><path id="path696" class="cls-3" d="M49.81,1C22.86,1,1,18.26,1,39.55c0,13.69,9.05,25.7,22.65,32.55l-4.6,17.17a1.42,1.42,0,0,0,.35,1.47,1.39,1.39,0,0,0,1,.41,1.36,1.36,0,0,0,.85-.33L41,77.46a62.07,62.07,0,0,0,8.79.65c27,0,48.81-17.26,48.81-38.56S76.76,1,49.81,1"/></g></g></g></g></svg>