<svg width="4" height="16" viewBox="0 0 4 16" fill="none" xmlns="http://www.w3.org/2000/svg">
<path d="M2 0.5C1.3125 0.5 0.75 1.0625 0.75 1.75C0.75 2.4375 1.3125 3 2 3C2.6875 3 3.25 2.4375 3.25 1.75C3.25 1.0625 2.6875 0.5 2 0.5ZM2 13C1.3125 13 0.75 13.5625 0.75 14.25C0.75 14.9375 1.3125 15.5 2 15.5C2.6875 15.5 3.25 14.9375 3.25 14.25C3.25 13.5625 2.6875 13 2 13ZM2 6.75C1.3125 6.75 0.75 7.3125 0.75 8C0.75 8.6875 1.3125 9.25 2 9.25C2.6875 9.25 3.25 8.6875 3.25 8C3.25 7.3125 2.6875 6.75 2 6.75Z" fill="#777777"/>
</svg>
