<svg width="18" height="18" viewBox="0 0 18 18" fill="none" xmlns="http://www.w3.org/2000/svg">
<path d="M9.00033 17.3334C4.39783 17.3334 0.666992 13.6026 0.666992 9.00008C0.666992 4.39758 4.39783 0.666748 9.00033 0.666748C13.6028 0.666748 17.3337 4.39758 17.3337 9.00008C17.3337 13.6026 13.6028 17.3334 9.00033 17.3334ZM9.00033 15.6667C10.7684 15.6667 12.4641 14.9644 13.7144 13.7141C14.9646 12.4639 15.667 10.7682 15.667 9.00008C15.667 7.23197 14.9646 5.53628 13.7144 4.28604C12.4641 3.03579 10.7684 2.33341 9.00033 2.33341C7.23222 2.33341 5.53652 3.03579 4.28628 4.28604C3.03604 5.53628 2.33366 7.23197 2.33366 9.00008C2.33366 10.7682 3.03604 12.4639 4.28628 13.7141C5.53652 14.9644 7.23222 15.6667 9.00033 15.6667ZM8.16699 11.5001H9.83366V13.1667H8.16699V11.5001ZM8.16699 4.83341H9.83366V9.83341H8.16699V4.83341Z" fill="#018A93"/>
</svg>
