<svg width="16" height="16" viewBox="0 0 16 16" fill="none" xmlns="http://www.w3.org/2000/svg">
<path d="M8 0.5C12.1423 0.5 15.5 3.85775 15.5 8C15.5 8.54525 15.4422 9.07625 15.3312 9.5885L13.9948 8.25125C14.0498 6.93481 13.67 5.63686 12.9139 4.55778C12.1579 3.47869 11.0676 2.67848 9.81153 2.28067C8.55543 1.88286 7.20331 1.90957 5.96391 2.35669C4.7245 2.80381 3.66674 3.64647 2.9539 4.75458C2.24107 5.86269 1.91281 7.17463 2.0198 8.48786C2.12679 9.8011 2.66307 11.0426 3.54587 12.0207C4.42867 12.9988 5.60888 13.6592 6.90431 13.8998C8.19974 14.1404 9.53836 13.9479 10.7135 13.352C10.9998 13.8057 11.4025 14.1743 11.8798 14.4193C10.7099 15.1281 9.36783 15.5019 8 15.5C3.85775 15.5 0.5 12.1423 0.5 8C0.5 3.85775 3.85775 0.5 8 0.5ZM13.25 9.629L14.3105 10.6895C14.5169 10.8959 14.6587 11.158 14.7184 11.4437C14.778 11.7295 14.753 12.0264 14.6464 12.2981C14.5398 12.5699 14.3562 12.8046 14.1182 12.9736C13.8802 13.1425 13.598 13.2383 13.3063 13.2493C13.0146 13.2602 12.7261 13.1858 12.476 13.0352C12.226 12.8846 12.0253 12.6643 11.8986 12.4013C11.772 12.1383 11.7248 11.8441 11.7628 11.5547C11.8009 11.2653 11.9226 10.9933 12.113 10.772L12.1895 10.6895L13.25 9.629ZM8 10.25C9.0995 10.25 10.0887 10.7232 10.775 11.4777L10.0662 12.1227C9.47375 11.8865 8.7635 11.75 8 11.75C7.2365 11.75 6.52625 11.8872 5.93375 12.122L5.225 11.477C5.57616 11.09 6.00453 10.7808 6.48249 10.5695C6.96045 10.3581 7.4774 10.2493 8 10.25ZM5.375 6.5C5.67337 6.5 5.95952 6.61853 6.1705 6.8295C6.38147 7.04048 6.5 7.32663 6.5 7.625C6.5 7.92337 6.38147 8.20952 6.1705 8.4205C5.95952 8.63147 5.67337 8.75 5.375 8.75C5.07663 8.75 4.79048 8.63147 4.5795 8.4205C4.36853 8.20952 4.25 7.92337 4.25 7.625C4.25 7.32663 4.36853 7.04048 4.5795 6.8295C4.79048 6.61853 5.07663 6.5 5.375 6.5ZM10.625 6.5C10.9234 6.5 11.2095 6.61853 11.4205 6.8295C11.6315 7.04048 11.75 7.32663 11.75 7.625C11.75 7.92337 11.6315 8.20952 11.4205 8.4205C11.2095 8.63147 10.9234 8.75 10.625 8.75C10.3266 8.75 10.0405 8.63147 9.8295 8.4205C9.61853 8.20952 9.5 7.92337 9.5 7.625C9.5 7.32663 9.61853 7.04048 9.8295 6.8295C10.0405 6.61853 10.3266 6.5 10.625 6.5Z" fill="#FF6F32"/>
</svg>
