<svg width="16" height="18" viewBox="0 0 16 18" fill="none" xmlns="http://www.w3.org/2000/svg">
<path d="M0.5 14.4166V3.16663C0.5 2.50358 0.763392 1.8677 1.23223 1.39886C1.70107 0.930018 2.33696 0.666626 3 0.666626H14.6667C14.8877 0.666626 15.0996 0.754423 15.2559 0.910704C15.4122 1.06698 15.5 1.27895 15.5 1.49996V16.5C15.5 16.721 15.4122 16.9329 15.2559 17.0892C15.0996 17.2455 14.8877 17.3333 14.6667 17.3333H3.41667C2.64312 17.3333 1.90125 17.026 1.35427 16.479C0.807291 15.932 0.5 15.1902 0.5 14.4166ZM13.8333 15.6666V13.1666H3.41667C3.08515 13.1666 2.7672 13.2983 2.53278 13.5327C2.29836 13.7672 2.16667 14.0851 2.16667 14.4166C2.16667 14.7481 2.29836 15.0661 2.53278 15.3005C2.7672 15.5349 3.08515 15.6666 3.41667 15.6666H13.8333ZM6.33333 2.33329H3C2.77899 2.33329 2.56702 2.42109 2.41074 2.57737C2.25446 2.73365 2.16667 2.94561 2.16667 3.16663V11.7808C2.55724 11.5953 2.98429 11.4994 3.41667 11.5H13.8333V2.33329H12.1667V8.99996L9.25 7.33329L6.33333 8.99996V2.33329Z" fill="current"/>
</svg>
