<svg width="20" height="20" viewBox="0 0 20 20" fill="none" xmlns="http://www.w3.org/2000/svg">
<g clip-path="url(#clip0_890_3126)">
<path d="M14.1667 5.00008H18.3333V6.66675H16.6667V17.5001C16.6667 17.7211 16.5789 17.9331 16.4226 18.0893C16.2663 18.2456 16.0543 18.3334 15.8333 18.3334H4.16666C3.94565 18.3334 3.73369 18.2456 3.57741 18.0893C3.42113 17.9331 3.33333 17.7211 3.33333 17.5001V6.66675H1.66666V5.00008H5.83333V2.50008C5.83333 2.27907 5.92113 2.06711 6.07741 1.91083C6.23369 1.75455 6.44565 1.66675 6.66666 1.66675H13.3333C13.5543 1.66675 13.7663 1.75455 13.9226 1.91083C14.0789 2.06711 14.1667 2.27907 14.1667 2.50008V5.00008ZM15 6.66675H5V16.6667H15V6.66675ZM7.5 9.16675H9.16666V14.1667H7.5V9.16675ZM10.8333 9.16675H12.5V14.1667H10.8333V9.16675ZM7.5 3.33341V5.00008H12.5V3.33341H7.5Z" fill="#FF6F32"/>
</g>
<defs>
<clipPath id="clip0_890_3126">
<rect width="20" height="20" fill="white"/>
</clipPath>
</defs>
</svg>
