<svg width="24" height="24" viewBox="0 0 24 24" fill="none" xmlns="http://www.w3.org/2000/svg">
<g clip-path="url(#clip0_383_2776)">
<path d="M19.5424 23.6H4.85766C3.78183 23.599 2.75035 23.1712 1.98962 22.4104C1.22888 21.6497 0.801057 20.6182 0.800034 19.5424L0.800034 4.85765C0.801057 3.78181 1.22888 2.75033 1.98962 1.9896C2.75035 1.22887 3.78183 0.801041 4.85766 0.800018L19.5424 0.800018C20.6182 0.801041 21.6497 1.22887 22.4105 1.9896C23.1712 2.75033 23.599 3.78181 23.6 4.85765V19.5424C23.599 20.6182 23.1712 21.6497 22.4105 22.4104C21.6497 23.1712 20.6182 23.599 19.5424 23.6ZM4.85766 2.73222C4.29428 2.73324 3.75426 2.9575 3.35589 3.35587C2.95751 3.75425 2.73326 4.29426 2.73224 4.85765V19.5424C2.73326 20.1058 2.95751 20.6458 3.35589 21.0442C3.75426 21.4425 4.29428 21.6668 4.85766 21.6678H19.5424C20.1058 21.6668 20.6458 21.4425 21.0442 21.0442C21.4426 20.6458 21.6668 20.1058 21.6678 19.5424V4.85765C21.6668 4.29426 21.4426 3.75425 21.0442 3.35587C20.6458 2.9575 20.1058 2.73324 19.5424 2.73222H4.85766Z" fill="#B0B0B0"/>
<path d="M22.6339 8.91521H1.76612C1.50989 8.91521 1.26416 8.81342 1.08298 8.63224C0.901804 8.45106 0.800018 8.20533 0.800018 7.9491C0.800018 7.69288 0.901804 7.44715 1.08298 7.26597C1.26416 7.08479 1.50989 6.983 1.76612 6.983H22.6339C22.8901 6.983 23.1359 7.08479 23.3171 7.26597C23.4982 7.44715 23.6 7.69288 23.6 7.9491C23.6 8.20533 23.4982 8.45106 23.3171 8.63224C23.1359 8.81342 22.8901 8.91521 22.6339 8.91521Z" fill="#B0B0B0"/>
<path d="M11.2532 18.6845C10.4079 18.6845 9.58154 18.4339 8.87868 17.9642C8.17582 17.4946 7.62801 16.8271 7.30452 16.0461C6.98102 15.2651 6.89638 14.4058 7.0613 13.5767C7.22621 12.7476 7.63327 11.986 8.23101 11.3883C8.82874 10.7906 9.5903 10.3835 10.4194 10.2186C11.2485 10.0537 12.1078 10.1383 12.8888 10.4618C13.6698 10.7853 14.3373 11.3331 14.8069 12.036C15.2766 12.7388 15.5272 13.5652 15.5272 14.4105C15.5262 15.5437 15.0756 16.6303 14.2743 17.4316C13.473 18.2329 12.3864 18.6835 11.2532 18.6845ZM11.2532 12.0725C10.7891 12.0726 10.3354 12.2105 9.94978 12.4689C9.56418 12.7272 9.26405 13.0944 9.08751 13.5236C8.91096 13.9529 8.86596 14.4249 8.95822 14.8798C9.05047 15.3347 9.27582 15.7519 9.60566 16.0785C9.93549 16.4051 10.3549 16.6263 10.8107 16.714C11.2665 16.8017 11.7381 16.752 12.1656 16.5712C12.5931 16.3904 12.9572 16.0866 13.2117 15.6985C13.4662 15.3103 13.5996 14.8553 13.595 14.3912C13.5889 13.7741 13.3395 13.1844 12.901 12.7502C12.4625 12.3161 11.8703 12.0725 11.2532 12.0725Z" fill="#B0B0B0"/>
<path d="M16.4508 20.5741C16.3236 20.5738 16.1977 20.5484 16.0803 20.4993C15.9629 20.4502 15.8564 20.3784 15.7668 20.2881L12.911 17.4168C12.8187 17.3278 12.7449 17.2213 12.6941 17.1035C12.6433 16.9858 12.6165 16.859 12.6152 16.7307C12.6139 16.6025 12.6382 16.4752 12.6866 16.3564C12.735 16.2376 12.8066 16.1297 12.8972 16.0388C12.9877 15.948 13.0955 15.8761 13.2142 15.8274C13.3328 15.7786 13.46 15.754 13.5883 15.7549C13.7165 15.7559 13.8433 15.7823 13.9613 15.8328C14.0792 15.8833 14.1859 15.9567 14.2752 16.0488L17.1348 18.9085C17.2684 19.0443 17.3591 19.2165 17.3954 19.4035C17.4318 19.5905 17.4123 19.7841 17.3393 19.9601C17.2664 20.1361 17.1432 20.2867 16.9852 20.3931C16.8272 20.4996 16.6413 20.5571 16.4508 20.5586V20.5741Z" fill="#B0B0B0"/>
<path d="M10.461 5.82371H9.6881C9.43188 5.82371 9.18614 5.72193 9.00496 5.54075C8.82379 5.35957 8.722 5.11384 8.722 4.85761C8.722 4.60139 8.82379 4.35565 9.00496 4.17447C9.18614 3.9933 9.43188 3.89151 9.6881 3.89151H10.461C10.7172 3.89151 10.9629 3.9933 11.1441 4.17447C11.3253 4.35565 11.4271 4.60139 11.4271 4.85761C11.4271 5.11384 11.3253 5.35957 11.1441 5.54075C10.9629 5.72193 10.7172 5.82371 10.461 5.82371Z" fill="#B0B0B0"/>
<path d="M6.21013 5.82371H5.43725C5.18102 5.82371 4.93529 5.72193 4.75411 5.54075C4.57293 5.35957 4.47115 5.11384 4.47115 4.85761C4.47115 4.60139 4.57293 4.35565 4.75411 4.17447C4.93529 3.9933 5.18102 3.89151 5.43725 3.89151H6.21013C6.46635 3.89151 6.71209 3.9933 6.89327 4.17447C7.07444 4.35565 7.17623 4.60139 7.17623 4.85761C7.17623 5.11384 7.07444 5.35957 6.89327 5.54075C6.71209 5.72193 6.46635 5.82371 6.21013 5.82371Z" fill="#B0B0B0"/>
</g>
<defs>
<clipPath id="clip0_383_2776">
<rect width="22.8" height="22.8" fill="white" transform="translate(0.800034 0.800018)"/>
</clipPath>
</defs>
</svg>
