<svg width="48" height="48" viewBox="0 0 48 48" fill="none" xmlns="http://www.w3.org/2000/svg">
<g clip-path="url(#clip0_699_3152)">
<g clip-path="url(#clip1_699_3152)">
<path d="M26.3478 35.9997H21.5478C21.2825 35.9997 21.0282 35.8943 20.8407 35.7068C20.6531 35.5192 20.5478 35.2649 20.5478 34.9997V32.8797C20.5529 32.594 20.4814 32.3122 20.3408 32.0636C20.2002 31.8149 19.9956 31.6084 19.7482 31.4655C19.5009 31.3226 19.2197 31.2486 18.9341 31.2511C18.6484 31.2536 18.3686 31.3325 18.1238 31.4797L16.2958 32.5397C16.0665 32.6718 15.7942 32.7077 15.5386 32.6395C15.2829 32.5712 15.0647 32.4045 14.9318 32.1757L12.5318 28.0237C12.4646 27.9111 12.421 27.786 12.4038 27.656C12.3866 27.526 12.3961 27.3938 12.4318 27.2677C12.4998 27.0115 12.6666 26.7928 12.8958 26.6597L14.7358 25.5997C14.9858 25.4613 15.1943 25.2585 15.3395 25.0123C15.4846 24.7661 15.5612 24.4855 15.5612 24.1997C15.5612 23.9139 15.4846 23.6333 15.3395 23.3871C15.1943 23.1409 14.9858 22.938 14.7358 22.7997L12.8998 21.7397C12.6706 21.6065 12.5038 21.3878 12.4358 21.1317C12.4001 21.0055 12.3906 20.8733 12.4078 20.7434C12.425 20.6134 12.4686 20.4882 12.5358 20.3757L14.9358 16.2237C15.0687 15.9949 15.2869 15.8281 15.5426 15.7599C15.7982 15.6916 16.0705 15.7275 16.2998 15.8597L18.1358 16.9197C18.3806 17.0668 18.6604 17.1458 18.9461 17.1482C19.2317 17.1507 19.5129 17.0767 19.7602 16.9338C20.0076 16.7909 20.2122 16.5844 20.3528 16.3358C20.4934 16.0871 20.5649 15.8053 20.5598 15.5197V13.3997C20.5598 13.1351 20.6646 12.8814 20.8512 12.694C21.0379 12.5065 21.2912 12.4007 21.5558 12.3997H26.3558C26.621 12.3997 26.8753 12.505 27.0629 12.6926C27.2504 12.8801 27.3558 13.1344 27.3558 13.3997V15.5197C27.3532 15.8029 27.426 16.0818 27.5665 16.3278C27.7071 16.5738 27.9104 16.778 28.1558 16.9197C28.4003 17.0563 28.6757 17.128 28.9558 17.128C29.2358 17.128 29.5113 17.0563 29.7558 16.9197L31.5998 15.8597C31.829 15.7275 32.1013 15.6916 32.357 15.7599C32.6126 15.8281 32.8308 15.9949 32.9638 16.2237L35.3638 20.3757C35.4959 20.6049 35.5318 20.8772 35.4636 21.1329C35.3953 21.3885 35.2286 21.6067 34.9998 21.7397L33.1678 22.7997C32.9177 22.938 32.7092 23.1409 32.5641 23.3871C32.4189 23.6333 32.3424 23.9139 32.3424 24.1997C32.3424 24.4855 32.4189 24.7661 32.5641 25.0123C32.7092 25.2585 32.9177 25.4613 33.1678 25.5997L35.0038 26.6597C35.2326 26.7926 35.3993 27.0108 35.4676 27.2665C35.5358 27.5221 35.4999 27.7944 35.3678 28.0237L32.9678 32.1757C32.8348 32.4045 32.6166 32.5712 32.361 32.6395C32.1053 32.7077 31.833 32.6718 31.6038 32.5397L29.7718 31.4797C29.5273 31.343 29.2518 31.2713 28.9718 31.2713C28.6917 31.2713 28.4163 31.343 28.1718 31.4797C27.9264 31.6213 27.7231 31.8255 27.5825 32.0715C27.442 32.3175 27.3692 32.5964 27.3718 32.8797V34.9997C27.3718 35.133 27.3452 35.2651 27.2934 35.388C27.2417 35.5109 27.1659 35.6222 27.0704 35.7154C26.975 35.8086 26.8619 35.8817 26.7378 35.9305C26.6137 35.9794 26.4811 36.0029 26.3478 35.9997ZM22.5558 33.9997H25.3558V32.8797C25.3507 32.243 25.5147 31.6164 25.8308 31.0637C26.147 30.511 26.6041 30.0521 27.1555 29.7337C27.7068 29.4153 28.3328 29.2489 28.9695 29.2513C29.6062 29.2538 30.2308 29.425 30.7798 29.7477L31.7478 30.3077L33.1438 27.9077L32.1758 27.3477C31.6217 27.0337 31.1609 26.5783 30.8403 26.0281C30.5197 25.4779 30.3507 24.8525 30.3507 24.2157C30.3507 23.5788 30.5197 22.9534 30.8403 22.4032C31.1609 21.853 31.6217 21.3976 32.1758 21.0837L33.1438 20.5237L31.7478 18.1237L30.7798 18.6837C30.2283 19.0098 29.5998 19.1829 28.9591 19.185C28.3185 19.1871 27.6888 19.0182 27.1352 18.6958C26.5816 18.3733 26.1241 17.909 25.8099 17.3506C25.4957 16.7923 25.3361 16.1602 25.3478 15.5197V14.3997H22.5478V15.5197C22.5528 16.1563 22.3888 16.783 22.0727 17.3356C21.7565 17.8883 21.2995 18.3472 20.7481 18.6656C20.1967 18.984 19.5707 19.1504 18.934 19.148C18.2973 19.1455 17.6727 18.9743 17.1238 18.6517L16.1558 18.0917L14.7598 20.4917L15.7278 21.0517C16.2818 21.3656 16.7426 21.821 17.0632 22.3712C17.3839 22.9214 17.5528 23.5468 17.5528 24.1837C17.5528 24.8205 17.3839 25.4459 17.0632 25.9961C16.7426 26.5463 16.2818 27.0017 15.7278 27.3157L14.7598 27.8757L16.1558 30.2757L17.1238 29.7157C17.6752 29.3895 18.3037 29.2165 18.9444 29.2143C19.5851 29.2122 20.2147 29.3811 20.7683 29.7035C21.3219 30.026 21.7794 30.4904 22.0937 31.0487C22.4079 31.607 22.5674 32.2391 22.5558 32.8797V33.9997Z" fill="#B0B0B0"/>
<path d="M23.9519 27.9999C23.2003 27.9999 22.4656 27.777 21.8407 27.3595C21.2158 26.9419 20.7287 26.3485 20.4411 25.6541C20.1535 24.9597 20.0782 24.1957 20.2249 23.4586C20.3715 22.7214 20.7334 22.0443 21.2649 21.5129C21.7963 20.9815 22.4734 20.6195 23.2105 20.4729C23.9476 20.3263 24.7117 20.4015 25.4061 20.6892C26.1004 20.9768 26.6939 21.4638 27.1114 22.0887C27.529 22.7136 27.7519 23.4483 27.7519 24.1999C27.7508 25.2074 27.3501 26.1733 26.6377 26.8857C25.9253 27.5982 24.9594 27.9988 23.9519 27.9999ZM23.9519 22.3999C23.5959 22.3999 23.2478 22.5055 22.9518 22.7033C22.6558 22.901 22.4251 23.1822 22.2889 23.5111C22.1526 23.84 22.117 24.2019 22.1864 24.5511C22.2559 24.9002 22.4273 25.221 22.6791 25.4727C22.9308 25.7244 23.2515 25.8959 23.6007 25.9653C23.9499 26.0348 24.3118 25.9991 24.6407 25.8629C24.9696 25.7267 25.2507 25.4959 25.4485 25.1999C25.6463 24.9039 25.7519 24.5559 25.7519 24.1999C25.7508 23.7228 25.5608 23.2656 25.2235 22.9283C24.8861 22.5909 24.4289 22.401 23.9519 22.3999Z" fill="#B0B0B0"/>
</g>
</g>
<defs>
<clipPath id="clip0_699_3152">
<rect width="24" height="24" fill="white" transform="translate(12 12)"/>
</clipPath>
<clipPath id="clip1_699_3152">
<rect width="23.104" height="23.6" fill="white" transform="translate(12.3999 12.3998)"/>
</clipPath>
</defs>
</svg>
