<svg width="48" height="48" viewBox="0 0 48 48" fill="none" xmlns="http://www.w3.org/2000/svg">
<g clip-path="url(#clip0_699_3183)">
<g clip-path="url(#clip1_699_3183)">
<path d="M31.5422 35.6H16.8574C15.7816 35.599 14.7501 35.1712 13.9894 34.4105C13.2287 33.6497 12.8008 32.6183 12.7998 31.5424V16.8577C12.8008 15.7818 13.2287 14.7504 13.9894 13.9896C14.7501 13.2289 15.7816 12.8011 16.8574 12.8L31.5422 12.8C32.618 12.8011 33.6495 13.2289 34.4102 13.9896C35.171 14.7504 35.5988 15.7818 35.5998 16.8577V31.5424C35.5988 32.6183 35.171 33.6497 34.4102 34.4105C33.6495 35.1712 32.618 35.599 31.5422 35.6ZM16.8574 14.7323C16.294 14.7333 15.754 14.9575 15.3557 15.3559C14.9573 15.7543 14.733 16.2943 14.732 16.8577V31.5424C14.733 32.1058 14.9573 32.6458 15.3557 33.0442C15.754 33.4426 16.294 33.6668 16.8574 33.6678H31.5422C32.1056 33.6668 32.6456 33.4426 33.044 33.0442C33.4423 32.6458 33.6666 32.1058 33.6676 31.5424V16.8577C33.6666 16.2943 33.4423 15.7543 33.044 15.3559C32.6456 14.9575 32.1056 14.7333 31.5422 14.7323H16.8574Z" fill="#B0B0B0"/>
<path d="M34.6337 20.9152H13.7659C13.5097 20.9152 13.2639 20.8135 13.0828 20.6323C12.9016 20.4511 12.7998 20.2054 12.7998 19.9491C12.7998 19.6929 12.9016 19.4472 13.0828 19.266C13.2639 19.0848 13.5097 18.983 13.7659 18.983H34.6337C34.8899 18.983 35.1357 19.0848 35.3168 19.266C35.498 19.4472 35.5998 19.6929 35.5998 19.9491C35.5998 20.2054 35.498 20.4511 35.3168 20.6323C35.1357 20.8135 34.8899 20.9152 34.6337 20.9152Z" fill="#B0B0B0"/>
<path d="M23.253 30.6845C22.4077 30.6845 21.5814 30.4339 20.8785 29.9642C20.1757 29.4946 19.6278 28.8271 19.3043 28.0461C18.9809 27.2651 18.8962 26.4058 19.0611 25.5767C19.226 24.7476 19.6331 23.986 20.2308 23.3883C20.8286 22.7906 21.5901 22.3835 22.4192 22.2186C23.2483 22.0537 24.1077 22.1383 24.8886 22.4618C25.6696 22.7853 26.3371 23.3331 26.8068 24.036C27.2764 24.7388 27.5271 25.5652 27.5271 26.4105C27.5261 27.5437 27.0754 28.6303 26.2741 29.4316C25.4728 30.2329 24.3863 30.6835 23.253 30.6845ZM23.253 24.0725C22.7889 24.0726 22.3352 24.2105 21.9496 24.4689C21.564 24.7272 21.2639 25.0944 21.0873 25.5236C20.9108 25.9529 20.8658 26.4249 20.958 26.8798C21.0503 27.3347 21.2757 27.7519 21.6055 28.0785C21.9353 28.4051 22.3548 28.6263 22.8105 28.714C23.2663 28.8017 23.7379 28.752 24.1654 28.5712C24.5929 28.3904 24.957 28.0866 25.2115 27.6985C25.466 27.3103 25.5995 26.8553 25.5949 26.3912C25.5888 25.7741 25.3393 25.1844 24.9008 24.7502C24.4623 24.3161 23.8701 24.0725 23.253 24.0725Z" fill="#B0B0B0"/>
<path d="M28.4504 32.5741C28.3232 32.5739 28.1973 32.5485 28.0799 32.4994C27.9625 32.4503 27.856 32.3785 27.7664 32.2882L24.9106 29.4169C24.8182 29.3279 24.7445 29.2214 24.6937 29.1036C24.6429 28.9858 24.6161 28.8591 24.6148 28.7308C24.6135 28.6026 24.6378 28.4753 24.6862 28.3565C24.7346 28.2377 24.8062 28.1298 24.8967 28.0389C24.9873 27.9481 25.0951 27.8762 25.2137 27.8275C25.3324 27.7787 25.4596 27.7541 25.5878 27.755C25.7161 27.756 25.8429 27.7824 25.9609 27.8329C26.0788 27.8833 26.1855 27.9568 26.2748 28.0489L29.1344 30.9086C29.268 31.0444 29.3587 31.2166 29.395 31.4036C29.4314 31.5906 29.4119 31.7842 29.3389 31.9602C29.266 32.1362 29.1428 32.2868 28.9848 32.3932C28.8268 32.4997 28.6409 32.5572 28.4504 32.5587V32.5741Z" fill="#B0B0B0"/>
<path d="M22.4607 17.8237H21.6878C21.4316 17.8237 21.1858 17.7219 21.0046 17.5407C20.8235 17.3595 20.7217 17.1138 20.7217 16.8576C20.7217 16.6014 20.8235 16.3556 21.0046 16.1744C21.1858 15.9933 21.4316 15.8915 21.6878 15.8915H22.4607C22.7169 15.8915 22.9626 15.9933 23.1438 16.1744C23.325 16.3556 23.4268 16.6014 23.4268 16.8576C23.4268 17.1138 23.325 17.3595 23.1438 17.5407C22.9626 17.7219 22.7169 17.8237 22.4607 17.8237Z" fill="#B0B0B0"/>
<path d="M18.2097 17.8237H17.4368C17.1806 17.8237 16.9348 17.7219 16.7537 17.5407C16.5725 17.3595 16.4707 17.1138 16.4707 16.8576C16.4707 16.6014 16.5725 16.3556 16.7537 16.1744C16.9348 15.9933 17.1806 15.8915 17.4368 15.8915H18.2097C18.4659 15.8915 18.7116 15.9933 18.8928 16.1744C19.074 16.3556 19.1758 16.6014 19.1758 16.8576C19.1758 17.1138 19.074 17.3595 18.8928 17.5407C18.7116 17.7219 18.4659 17.8237 18.2097 17.8237Z" fill="#B0B0B0"/>
</g>
</g>
<defs>
<clipPath id="clip0_699_3183">
<rect width="24" height="24" fill="white" transform="translate(12 12)"/>
</clipPath>
<clipPath id="clip1_699_3183">
<rect width="22.8" height="22.8" fill="white" transform="translate(12.7998 12.8)"/>
</clipPath>
</defs>
</svg>
