<svg width="48" height="48" viewBox="0 0 48 48" fill="none" xmlns="http://www.w3.org/2000/svg">
<path d="M26 32.0001H14C14 26.0001 18 25.5001 20 26.0001C25.2 26.8001 26.1667 30.3334 26 32.0001Z" fill="white"/>
<path d="M33.987 32H25C25 27.1192 27.9957 26.7125 29.4935 27.1192C33.3879 27.77 34.1119 30.6442 33.987 32Z" fill="white"/>
<path d="M25.26 33.5999H14.3403C13.9855 33.6008 13.635 33.5187 13.3156 33.3597C12.9961 33.2007 12.716 32.969 12.4964 32.6822C12.2817 32.406 12.1309 32.0831 12.0554 31.738C11.9799 31.393 11.9816 31.0348 12.0604 30.6905C12.4746 28.8991 13.4639 27.3038 14.8683 26.1623C16.2728 25.0208 18.0103 24.3999 19.8001 24.3999C21.59 24.3999 23.3275 25.0208 24.732 26.1623C26.1364 27.3038 27.1257 28.8991 27.5399 30.6905C27.6184 31.0355 27.62 31.3943 27.5445 31.7399C27.469 32.0856 27.3184 32.4092 27.1039 32.6863C26.8835 32.9719 26.6031 33.2025 26.2838 33.3607C25.9644 33.5189 25.6144 33.6007 25.26 33.5999ZM19.8001 26.452C18.4571 26.4434 17.1512 26.9052 16.0971 27.7616C15.0431 28.6179 14.3036 29.8177 14.0003 31.1638C13.9911 31.206 13.9913 31.2498 14.001 31.2918C14.0107 31.3339 14.0296 31.3731 14.0563 31.4066C14.0896 31.4489 14.1317 31.483 14.1794 31.5065C14.2272 31.53 14.2794 31.5422 14.3323 31.5424H25.252C25.3049 31.5422 25.3571 31.53 25.4049 31.5065C25.4526 31.483 25.4947 31.4489 25.528 31.4066C25.5546 31.3731 25.5736 31.3339 25.5833 31.2918C25.593 31.2498 25.5932 31.206 25.584 31.1638C25.2813 29.8205 24.5442 28.6227 23.4934 27.7667C22.4426 26.9107 21.1405 26.4472 19.8001 26.452Z" fill="#B0B0B0"/>
<circle cx="20" cy="19" r="3" fill="white"/>
<path d="M19.7999 23.0641C18.9429 23.0649 18.105 22.8115 17.3921 22.336C16.6791 21.8605 16.1233 21.1842 15.7948 20.3927C15.4663 19.6012 15.3799 18.7301 15.5466 17.8895C15.7133 17.0489 16.1256 16.2766 16.7313 15.6704C17.3369 15.0641 18.1088 14.6512 18.9493 14.4837C19.7897 14.3162 20.6609 14.4018 21.4527 14.7295C22.2445 15.0573 22.9213 15.6125 23.3975 16.325C23.8737 17.0375 24.1279 17.8752 24.1279 18.7321C24.1268 19.88 23.6706 20.9807 22.8593 21.7928C22.048 22.6048 20.9478 23.062 19.7999 23.0641ZM19.7999 16.4041C19.3383 16.4034 18.8869 16.5396 18.5028 16.7955C18.1187 17.0514 17.8191 17.4156 17.6422 17.8419C17.4652 18.2682 17.4186 18.7374 17.5085 19.1901C17.5983 19.6428 17.8205 20.0587 18.1469 20.3851C18.4733 20.7115 18.8892 20.9337 19.3419 21.0235C19.7946 21.1134 20.2639 21.0669 20.6901 20.8899C21.1164 20.7129 21.4806 20.4133 21.7365 20.0292C21.9925 19.6451 22.1287 19.1937 22.1279 18.7321C22.1268 18.115 21.8812 17.5235 21.4448 17.0872C21.0085 16.6508 20.417 16.4052 19.7999 16.4041Z" fill="#B0B0B0"/>
<path d="M33.5283 33.6001H24.194C23.9305 33.6001 23.6777 33.491 23.4913 33.2968C23.3049 33.1026 23.2002 32.8392 23.2002 32.5646C23.2002 32.2899 23.3049 32.0265 23.4913 31.8323C23.6777 31.6381 23.9305 31.529 24.194 31.529H33.5283C33.5449 31.5293 33.5614 31.5258 33.5765 31.5186C33.5917 31.5115 33.6051 31.5009 33.6158 31.4876C33.6191 31.4797 33.6207 31.4713 33.6207 31.4627C33.6207 31.4542 33.6191 31.4457 33.6158 31.4379C33.4288 30.6187 33.0423 29.8635 32.4934 29.2454C31.9446 28.6273 31.2521 28.1672 30.4827 27.9094C29.7134 27.6516 28.8932 27.605 28.1015 27.7739C27.3098 27.9429 26.5733 28.3217 25.9631 28.8739C25.8655 28.9686 25.7507 29.0418 25.6253 29.0893C25.5 29.1368 25.3668 29.1575 25.2336 29.1502C25.1005 29.1429 24.9701 29.1078 24.8502 29.0469C24.7303 28.986 24.6235 28.9006 24.5359 28.7958C24.4484 28.691 24.382 28.5689 24.3407 28.4368C24.2994 28.3046 24.2841 28.1652 24.2956 28.0268C24.3071 27.8884 24.3452 27.7538 24.4077 27.631C24.4701 27.5083 24.5557 27.3999 24.6592 27.3123C25.5269 26.5245 26.5753 25.9837 27.7027 25.7424C28.8301 25.5011 29.9981 25.5675 31.0937 25.9351C32.1892 26.3026 33.1749 26.9589 33.9553 27.8403C34.7357 28.7218 35.2843 29.7983 35.5478 30.9657C35.6173 31.2784 35.6177 31.6035 35.5488 31.9164C35.4799 32.2293 35.3436 32.5217 35.1503 32.7717C34.9564 33.0271 34.71 33.234 34.4294 33.3774C34.1487 33.5207 33.8409 33.5968 33.5283 33.6001Z" fill="#B0B0B0"/>
<circle cx="29" cy="21" r="2" fill="white"/>
<path d="M29.0003 24.68C28.2606 24.68 27.5375 24.4606 26.9224 24.0496C26.3074 23.6387 25.828 23.0546 25.5449 22.3712C25.2619 21.6878 25.1878 20.9358 25.3321 20.2103C25.4764 19.4848 25.8326 18.8184 26.3557 18.2954C26.8787 17.7723 27.5451 17.4161 28.2706 17.2718C28.9961 17.1275 29.7481 17.2016 30.4315 17.4846C31.1149 17.7677 31.699 18.2471 32.11 18.8621C32.5209 19.4772 32.7403 20.2003 32.7403 20.94C32.7403 21.4311 32.6435 21.9174 32.4556 22.3712C32.2676 22.8249 31.9921 23.2372 31.6448 23.5845C31.2975 23.9318 30.8852 24.2073 30.4315 24.3953C29.9777 24.5832 29.4914 24.68 29.0003 24.68ZM29.0003 19.2C28.6561 19.2 28.3197 19.302 28.0336 19.4932C27.7474 19.6844 27.5244 19.9561 27.3927 20.2741C27.261 20.592 27.2266 20.9419 27.2937 21.2794C27.3608 21.6169 27.5265 21.927 27.7699 22.1703C28.0132 22.4137 28.3233 22.5794 28.6608 22.6465C28.9983 22.7137 29.3482 22.6792 29.6661 22.5475C29.9841 22.4158 30.2558 22.1928 30.447 21.9066C30.6382 21.6205 30.7403 21.2841 30.7403 20.94C30.736 20.4813 30.5509 20.0428 30.225 19.7199C29.8991 19.3971 29.459 19.2159 29.0003 19.216V19.2Z" fill="#B0B0B0"/>
</svg>
