<svg width="24" height="24" viewBox="0 0 24 24" fill="none" xmlns="http://www.w3.org/2000/svg">
<g clip-path="url(#clip0_383_2746)">
<path d="M14.3479 23.9997H9.54787C9.28265 23.9997 9.0283 23.8943 8.84076 23.7068C8.65323 23.5192 8.54787 23.2649 8.54787 22.9997V20.8797C8.55299 20.594 8.48153 20.3122 8.34094 20.0636C8.20034 19.8149 7.99572 19.6084 7.74834 19.4655C7.50096 19.3226 7.21984 19.2486 6.93418 19.2511C6.64851 19.2536 6.36872 19.3325 6.12387 19.4797L4.29587 20.5397C4.06662 20.6718 3.79433 20.7077 3.53867 20.6395C3.28301 20.5712 3.06481 20.4045 2.93187 20.1757L0.531872 16.0237C0.464665 15.9111 0.421133 15.786 0.403939 15.656C0.386745 15.526 0.39625 15.3938 0.431872 15.2677C0.499864 15.0115 0.666751 14.7928 0.895872 14.6597L2.73587 13.5997C2.98595 13.4613 3.19441 13.2585 3.33956 13.0123C3.48472 12.7661 3.56128 12.4855 3.56128 12.1997C3.56128 11.9139 3.48472 11.6333 3.33956 11.3871C3.19441 11.1409 2.98595 10.938 2.73587 10.7997L0.899872 9.73966C0.670751 9.60648 0.503864 9.3878 0.435872 9.13166C0.40025 9.00547 0.390745 8.87334 0.407939 8.74335C0.425133 8.61336 0.468665 8.48825 0.535872 8.37566L2.93587 4.22366C3.06881 3.99487 3.28701 3.82809 3.54267 3.75986C3.79833 3.69164 4.07062 3.72752 4.29987 3.85966L6.13587 4.91966C6.38072 5.06683 6.66051 5.14576 6.94618 5.14825C7.23184 5.15074 7.51296 5.0767 7.76034 4.93382C8.00772 4.79095 8.21234 4.58444 8.35294 4.33576C8.49354 4.08708 8.56499 3.80529 8.55987 3.51966V1.39966C8.55987 1.13513 8.66468 0.881384 8.85135 0.693962C9.03802 0.50654 9.29135 0.400716 9.55587 0.399658L14.3559 0.399658C14.6211 0.399658 14.8754 0.505015 15.063 0.692551C15.2505 0.880088 15.3559 1.13444 15.3559 1.39966V3.51966C15.3533 3.80295 15.4261 4.08183 15.5666 4.3278C15.7072 4.57378 15.9105 4.77802 16.1559 4.91966C16.4004 5.05628 16.6758 5.12802 16.9559 5.12802C17.236 5.12802 17.5114 5.05628 17.7559 4.91966L19.5999 3.85966C19.8291 3.72752 20.1014 3.69164 20.3571 3.75986C20.6127 3.82809 20.8309 3.99487 20.9639 4.22366L23.3639 8.37566C23.496 8.60492 23.5319 8.8772 23.4637 9.13286C23.3954 9.38852 23.2287 9.60672 22.9999 9.73966L21.1679 10.7997C20.9178 10.938 20.7093 11.1409 20.5642 11.3871C20.419 11.6333 20.3425 11.9139 20.3425 12.1997C20.3425 12.4855 20.419 12.7661 20.5642 13.0123C20.7093 13.2585 20.9178 13.4613 21.1679 13.5997L23.0039 14.6597C23.2327 14.7926 23.3994 15.0108 23.4677 15.2665C23.5359 15.5221 23.5 15.7944 23.3679 16.0237L20.9679 20.1757C20.8349 20.4045 20.6167 20.5712 20.3611 20.6395C20.1054 20.7077 19.8331 20.6718 19.6039 20.5397L17.7719 19.4797C17.5274 19.343 17.252 19.2713 16.9719 19.2713C16.6918 19.2713 16.4164 19.343 16.1719 19.4797C15.9265 19.6213 15.7232 19.8255 15.5826 20.0715C15.4421 20.3175 15.3693 20.5964 15.3719 20.8797V22.9997C15.3719 23.133 15.3453 23.2651 15.2935 23.388C15.2418 23.5109 15.166 23.6222 15.0705 23.7154C14.9751 23.8086 14.862 23.8817 14.7379 23.9305C14.6138 23.9794 14.4812 24.0029 14.3479 23.9997ZM10.5559 21.9997H13.3559V20.8797C13.3509 20.243 13.5148 19.6164 13.8309 19.0637C14.1471 18.511 14.6042 18.0521 15.1556 17.7337C15.7069 17.4153 16.3329 17.2489 16.9696 17.2513C17.6063 17.2538 18.231 17.425 18.7799 17.7477L19.7479 18.3077L21.1439 15.9077L20.1759 15.3477C19.6218 15.0337 19.161 14.5783 18.8404 14.0281C18.5198 13.4779 18.3509 12.8525 18.3509 12.2157C18.3509 11.5788 18.5198 10.9534 18.8404 10.4032C19.161 9.85297 19.6218 9.39764 20.1759 9.08366L21.1439 8.52366L19.7479 6.12366L18.7799 6.68366C18.2284 7.0098 17.5999 7.18286 16.9592 7.18499C16.3186 7.18712 15.6889 7.01824 15.1353 6.69578C14.5817 6.37332 14.1242 5.90896 13.81 5.35063C13.4958 4.7923 13.3362 4.16023 13.3479 3.51966V2.39966H10.5479V3.51966C10.5529 4.15634 10.389 4.78296 10.0728 5.33562C9.75663 5.88828 9.29956 6.34721 8.74818 6.66559C8.1968 6.98398 7.57084 7.15043 6.93414 7.14799C6.29745 7.14554 5.67279 6.97427 5.12387 6.65166L4.15587 6.09166L2.75987 8.49166L3.72787 9.05166C4.2819 9.36564 4.74273 9.82097 5.06335 10.3712C5.38396 10.9214 5.55289 11.5468 5.55289 12.1837C5.55289 12.8205 5.38396 13.4459 5.06335 13.9961C4.74273 14.5463 4.2819 15.0017 3.72787 15.3157L2.75987 15.8757L4.15587 18.2757L5.12387 17.7157C5.67532 17.3895 6.30382 17.2165 6.94449 17.2143C7.58516 17.2122 8.2148 17.3811 8.76841 17.7035C9.32201 18.026 9.77954 18.4904 10.0938 19.0487C10.408 19.607 10.5675 20.2391 10.5559 20.8797V21.9997Z" fill="#B0B0B0"/>
<path d="M11.952 15.9998C11.2004 15.9998 10.4657 15.777 9.84084 15.3594C9.21594 14.9419 8.72888 14.3484 8.44127 13.654C8.15365 12.9597 8.0784 12.1956 8.22503 11.4585C8.37165 10.7214 8.73356 10.0443 9.265 9.51284C9.79644 8.9814 10.4735 8.61948 11.2107 8.47286C11.9478 8.32624 12.7118 8.40149 13.4062 8.6891C14.1006 8.97671 14.694 9.46377 15.1116 10.0887C15.5291 10.7136 15.752 11.4483 15.752 12.1998C15.751 13.2073 15.3503 14.1733 14.6378 14.8857C13.9254 15.5981 12.9595 15.9988 11.952 15.9998ZM11.952 10.3998C11.596 10.3998 11.248 10.5054 10.952 10.7032C10.656 10.901 10.4253 11.1821 10.289 11.511C10.1528 11.8399 10.1171 12.2018 10.1866 12.551C10.2561 12.9002 10.4275 13.2209 10.6792 13.4726C10.931 13.7244 11.2517 13.8958 11.6008 13.9653C11.95 14.0347 12.3119 13.9991 12.6408 13.8628C12.9697 13.7266 13.2509 13.4959 13.4487 13.1999C13.6464 12.9039 13.752 12.5559 13.752 12.1998C13.751 11.7228 13.561 11.2656 13.2236 10.9282C12.8863 10.5909 12.4291 10.4009 11.952 10.3998Z" fill="#B0B0B0"/>
</g>
<defs>
<clipPath id="clip0_383_2746">
<rect width="23.104" height="23.6" fill="white" transform="translate(0.400017 0.39978)"/>
</clipPath>
</defs>
</svg>
