<svg width="24" height="20" viewBox="0 0 24 20" fill="none" xmlns="http://www.w3.org/2000/svg">
<path d="M14 18.0001H2C2 12.0001 6 11.5001 8 12.0001C13.2 12.8001 14.1667 16.3334 14 18.0001Z" fill="white"/>
<path d="M21.987 18H13C13 13.1192 15.9957 12.7125 17.4935 13.1192C21.3879 13.77 22.1119 16.6442 21.987 18Z" fill="white"/>
<path d="M13.26 19.5999H2.34032C1.98545 19.6008 1.63503 19.5187 1.31557 19.3597C0.996106 19.2007 0.71598 18.969 0.496384 18.6822C0.281734 18.406 0.130944 18.0831 0.0554132 17.738C-0.0201179 17.393 -0.0184133 17.0348 0.060398 16.6905C0.474625 14.8991 1.4639 13.3038 2.86834 12.1623C4.27277 11.0208 6.01031 10.3999 7.80014 10.3999C9.58998 10.3999 11.3275 11.0208 12.732 12.1623C14.1364 13.3038 15.1257 14.8991 15.5399 16.6905C15.6184 17.0355 15.62 17.3943 15.5445 17.7399C15.469 18.0856 15.3184 18.4092 15.1039 18.6863C14.8835 18.9719 14.6031 19.2025 14.2838 19.3607C13.9644 19.5189 13.6144 19.6007 13.26 19.5999ZM7.80014 12.452C6.4571 12.4434 5.15119 12.9052 4.09713 13.7616C3.04307 14.6179 2.30361 15.8177 2.00033 17.1638C1.99108 17.206 1.99132 17.2498 2.00102 17.2918C2.01073 17.3339 2.02964 17.3731 2.05633 17.4066C2.08963 17.4489 2.13168 17.483 2.17943 17.5065C2.22717 17.53 2.2794 17.5422 2.33232 17.5424H13.252C13.3049 17.5422 13.3571 17.53 13.4049 17.5065C13.4526 17.483 13.4947 17.4489 13.528 17.4066C13.5546 17.3731 13.5736 17.3339 13.5833 17.2918C13.593 17.2498 13.5932 17.206 13.584 17.1638C13.2813 15.8205 12.5442 14.6227 11.4934 13.7667C10.4426 12.9107 9.14045 12.4472 7.80014 12.452Z" fill="#B0B0B0"/>
<circle cx="8" cy="5" r="3" fill="white"/>
<path d="M7.79999 9.06415C6.94303 9.06494 6.10509 8.81154 5.39217 8.33602C4.67925 7.86049 4.12339 7.1842 3.79489 6.3927C3.4664 5.60121 3.38004 4.73006 3.54674 3.88947C3.71344 3.04888 4.12571 2.27662 4.73139 1.67038C5.33707 1.06414 6.10895 0.651155 6.94939 0.48368C7.78982 0.316204 8.66105 0.401758 9.45285 0.729519C10.2447 1.05728 10.9215 1.61252 11.3976 2.325C11.8738 3.03748 12.128 3.87519 12.128 4.73215C12.1269 5.88005 11.6707 6.98069 10.8594 7.79275C10.0481 8.60482 8.94789 9.06203 7.79999 9.06415ZM7.79999 2.40415C7.33843 2.40336 6.88701 2.53955 6.5029 2.79549C6.11879 3.05143 5.81927 3.4156 5.64227 3.84188C5.46527 4.26816 5.41876 4.73738 5.50861 5.19011C5.59846 5.64285 5.82064 6.05874 6.14702 6.38512C6.4734 6.71149 6.88929 6.93368 7.34202 7.02353C7.79476 7.11338 8.26398 7.06686 8.69026 6.88986C9.11654 6.71287 9.48071 6.41335 9.73665 6.02924C9.99258 5.64513 10.1288 5.19371 10.128 4.73215C10.1269 4.11505 9.88132 3.52353 9.44497 3.08717C9.00861 2.65081 8.41709 2.4052 7.79999 2.40415Z" fill="#B0B0B0"/>
<path d="M21.5281 19.6001H12.1938C11.9302 19.6001 11.6774 19.491 11.491 19.2968C11.3047 19.1026 11.2 18.8392 11.2 18.5646C11.2 18.2899 11.3047 18.0265 11.491 17.8323C11.6774 17.6381 11.9302 17.529 12.1938 17.529H21.5281C21.5447 17.5293 21.5612 17.5258 21.5763 17.5186C21.5914 17.5115 21.6048 17.5009 21.6155 17.4876C21.6188 17.4797 21.6205 17.4713 21.6205 17.4627C21.6205 17.4542 21.6188 17.4457 21.6155 17.4379C21.4286 16.6187 21.042 15.8635 20.4932 15.2454C19.9444 14.6273 19.2518 14.1672 18.4825 13.9094C17.7131 13.6516 16.893 13.605 16.1013 13.7739C15.3095 13.9429 14.573 14.3217 13.9629 14.8739C13.8653 14.9686 13.7504 15.0418 13.6251 15.0893C13.4998 15.1368 13.3666 15.1575 13.2334 15.1502C13.1002 15.1429 12.9698 15.1078 12.85 15.0469C12.7301 14.986 12.6232 14.9006 12.5357 14.7958C12.4482 14.691 12.3818 14.5689 12.3405 14.4368C12.2992 14.3046 12.2838 14.1652 12.2953 14.0268C12.3068 13.8884 12.345 13.7538 12.4074 13.631C12.4699 13.5083 12.5554 13.3999 12.6589 13.3123C13.5267 12.5245 14.5751 11.9837 15.7024 11.7424C16.8298 11.5011 17.9979 11.5675 19.0934 11.9351C20.1889 12.3026 21.1747 12.9589 21.9551 13.8403C22.7355 14.7218 23.2841 15.7983 23.5476 16.9657C23.6171 17.2784 23.6174 17.6035 23.5485 17.9164C23.4797 18.2293 23.3434 18.5217 23.15 18.7717C22.9561 19.0271 22.7098 19.234 22.4291 19.3774C22.1485 19.5207 21.8406 19.5968 21.5281 19.6001Z" fill="#B0B0B0"/>
<circle cx="17" cy="7" r="2" fill="white"/>
<path d="M17.0001 10.68C16.2604 10.68 15.5373 10.4606 14.9222 10.0496C14.3072 9.63869 13.8278 9.05458 13.5448 8.37119C13.2617 7.68779 13.1876 6.9358 13.3319 6.21031C13.4762 5.48483 13.8324 4.81842 14.3555 4.29537C14.8785 3.77232 15.5449 3.41612 16.2704 3.27182C16.9959 3.12751 17.7479 3.20157 18.4313 3.48464C19.1147 3.76772 19.6988 4.24708 20.1098 4.86212C20.5207 5.47716 20.7401 6.20025 20.7401 6.93995C20.7401 7.4311 20.6433 7.91743 20.4554 8.37119C20.2674 8.82495 19.9919 9.23724 19.6447 9.58453C19.2974 9.93182 18.8851 10.2073 18.4313 10.3953C17.9776 10.5832 17.4912 10.68 17.0001 10.68ZM17.0001 5.19995C16.6559 5.19995 16.3195 5.302 16.0334 5.4932C15.7472 5.68439 15.5242 5.95614 15.3925 6.27408C15.2608 6.59203 15.2264 6.94188 15.2935 7.27941C15.3606 7.61694 15.5264 7.92697 15.7697 8.17032C16.013 8.41366 16.3231 8.57938 16.6606 8.64652C16.9981 8.71366 17.348 8.6792 17.6659 8.5475C17.9839 8.41581 18.2556 8.19279 18.4468 7.90664C18.638 7.6205 18.7401 7.28409 18.7401 6.93995C18.7359 6.48125 18.5507 6.04278 18.2248 5.71992C17.899 5.39706 17.4588 5.21593 17.0001 5.21595V5.19995Z" fill="#B0B0B0"/>
</svg>
