<svg width="24" height="24" viewBox="0 0 24 24" fill="none" xmlns="http://www.w3.org/2000/svg">
<path d="M11.7192 22.6923C9.75494 22.6923 7.83478 22.1285 6.20159 21.0724C4.5684 20.0162 3.29555 18.515 2.54402 16.7587C1.7925 15.0025 1.59606 13.0699 1.97956 11.2056C2.36305 9.34125 3.30924 7.62884 4.69847 6.28495C6.0877 4.94106 7.85755 4.02605 9.78419 3.65565C11.7108 3.28525 13.7077 3.4761 15.5222 4.20406C17.3368 4.93202 18.8875 6.16439 19.9782 7.74531C21.069 9.32622 21.6508 11.1847 21.65 13.0856C21.6469 15.6332 20.5996 18.0755 18.7377 19.8766C16.8759 21.6777 14.3517 22.6903 11.7192 22.6923ZM11.7192 5.3362C10.1355 5.3362 8.58725 5.7907 7.27039 6.64221C5.95353 7.49372 4.92717 8.70401 4.32108 10.12C3.715 11.536 3.55642 13.0942 3.8654 14.5974C4.17438 16.1006 4.93704 17.4815 6.05693 18.5652C7.17683 19.649 8.60366 20.387 10.157 20.6861C11.7103 20.9851 13.3204 20.8316 14.7836 20.2451C16.2469 19.6585 17.4975 18.6653 18.3774 17.3909C19.2573 16.1165 19.7269 14.6183 19.7269 13.0856C19.7249 11.0309 18.8806 9.06098 17.3793 7.60812C15.878 6.15526 13.8424 5.33817 11.7192 5.3362Z" fill="#B0B0B0"/>
<path d="M14.3077 17.1465C14.1454 17.1451 13.9863 17.1027 13.8461 17.0237L11.2538 15.5758C11.1072 15.4948 10.9852 15.3778 10.9002 15.2367C10.8151 15.0956 10.7699 14.9352 10.7692 14.7719V9.95176C10.7692 9.70497 10.8705 9.46829 11.0508 9.29378C11.2311 9.11928 11.4757 9.02124 11.7307 9.02124C11.9857 9.02124 12.2303 9.11928 12.4106 9.29378C12.591 9.46829 12.6923 9.70497 12.6923 9.95176V14.2359L14.8038 15.4121C14.9873 15.5155 15.1303 15.6749 15.2104 15.8652C15.2905 16.0556 15.3032 16.2663 15.2465 16.4644C15.1898 16.6624 15.067 16.8368 14.8972 16.9602C14.7273 17.0836 14.52 17.1491 14.3077 17.1465Z" fill="#B0B0B0"/>
<line x1="11.923" y1="1.84888" x2="11.923" y2="5.19875" stroke="#B0B0B0" stroke-width="2.30769"/>
<line x1="8.65386" y1="1.63148" x2="15.1923" y2="1.63148" stroke="#B0B0B0" stroke-width="1.92308" stroke-linecap="round"/>
</svg>
